HIERARCHY
ROOT hip
{
  OFFSET 0 0 0
  CHANNELS 6 Xposition Yposition Zposition Zrotation Yrotation Xrotation
  JOINT abdomen
  {
    OFFSET 0 20.6881 -0.73152
    CHANNELS 3 Zrotation Xrotation Yrotation
    JOINT chest
    {
      OFFSET 0 11.7043 -0.48768
      CHANNELS 3 Zrotation Xrotation Yrotation
      JOINT neck
      {
        OFFSET 0 22.1894 -2.19456
        CHANNELS 3 Zrotation Xrotation Yrotation
        JOINT head
        {
          OFFSET -0.24384 7.07133 1.2192
          CHANNELS 3 Zrotation Xrotation Yrotation
          JOINT leftEye
          {
            OFFSET 4.14528 8.04674 8.04672
            CHANNELS 3 Zrotation Xrotation Yrotation
            End Site
            {
              OFFSET 1 0 0
            }
          }
          JOINT rightEye
          {
            OFFSET -3.6576 8.04674 8.04672
            CHANNELS 3 Zrotation Xrotation Yrotation
            End Site
            {
              OFFSET 1 0 0
            }
          }
        }
      }
      JOINT rCollar
      {
        OFFSET -2.68224 19.2634 -4.8768
        CHANNELS 3 Zrotation Xrotation Yrotation
        JOINT rShldr
        {
          OFFSET -8.77824 -1.95073 1.46304
          CHANNELS 3 Zrotation Xrotation Yrotation
          JOINT rForeArm
          {
            OFFSET -28.1742 -1.7115 0.48768
            CHANNELS 3 Zrotation Xrotation Yrotation
            JOINT rHand
            {
              OFFSET -22.5879 0.773209 7.07136
              CHANNELS 3 Zrotation Xrotation Yrotation
              JOINT rThumb1
              {
                OFFSET -1.2192 -0.487915 3.41376
                CHANNELS 3 Zrotation Xrotation Yrotation
                JOINT rThumb2
                {
                  OFFSET -3.37035 -0.52449 3.41376
                  CHANNELS 3 Zrotation Xrotation Yrotation
                  End Site
                  {
                    OFFSET -1.78271 -1.18214 1.43049
                  }
                }
              }
              JOINT rIndex1
              {
                OFFSET -7.75947 0.938293 5.60832
                CHANNELS 3 Zrotation Xrotation Yrotation
                JOINT rIndex2
                {
                  OFFSET -2.54057 -0.884171 1.56538
                  CHANNELS 3 Zrotation Xrotation Yrotation
                  End Site
                  {
                    OFFSET -1.62519 -0.234802 1.16502
                  }
                }
              }
              JOINT rMid1
              {
                OFFSET -8.24714 1.18213 3.41376
                CHANNELS 3 Zrotation Xrotation Yrotation
                JOINT rMid2
                {
                  OFFSET -3.10165 -0.590103 1.0647
                  CHANNELS 3 Zrotation Xrotation Yrotation
                  End Site
                  {
                    OFFSET -2.48547 -0.328903 0.83742
                  }
                }
              }
              JOINT rRing1
              {
                OFFSET -8.82822 0.546677 1.51678
                CHANNELS 3 Zrotation Xrotation Yrotation
                JOINT rRing2
                {
                  OFFSET -2.60934 -0.819778 -0.0198488
                  CHANNELS 3 Zrotation Xrotation Yrotation
                  End Site
                  {
                    OFFSET -2.33842 -0.294052 0.168128
                  }
                }
              }
              JOINT rPinky1
              {
                OFFSET -8.27202 -0.0477905 -0.4584
                CHANNELS 3 Zrotation Xrotation Yrotation
                JOINT rPinky2
                {
                  OFFSET -1.82734 -0.647385 -0.700984
                  CHANNELS 3 Zrotation Xrotation Yrotation
                  End Site
                  {
                    OFFSET -1.69225 -0.51767 -0.607171
                  }
                }
              }
            }
          }
        }
      }
      JOINT lCollar
      {
        OFFSET 2.68224 19.2634 -4.8768
        CHANNELS 3 Zrotation Xrotation Yrotation
        JOINT lShldr
        {
          OFFSET 8.77824 -1.95073 1.46304
          CHANNELS 3 Zrotation Xrotation Yrotation
          JOINT lForeArm
          {
            OFFSET 28.1742 -1.7115 0.48768
            CHANNELS 3 Zrotation Xrotation Yrotation
            JOINT lHand
            {
              OFFSET 22.5879 0.773209 7.07136
              CHANNELS 3 Zrotation Xrotation Yrotation
              JOINT lThumb1
              {
                OFFSET 1.2192 -0.487915 3.41376
                CHANNELS 3 Zrotation Xrotation Yrotation
                JOINT lThumb2
                {
                  OFFSET 3.37035 -0.52449 3.41376
                  CHANNELS 3 Zrotation Xrotation Yrotation
                  End Site
                  {
                    OFFSET 1.78271 -1.18214 1.43049
                  }
                }
              }
              JOINT lIndex1
              {
                OFFSET 7.75947 0.938293 5.60832
                CHANNELS 3 Zrotation Xrotation Yrotation
                JOINT lIndex2
                {
                  OFFSET 2.54057 -0.884171 1.56538
                  CHANNELS 3 Zrotation Xrotation Yrotation
                  End Site
                  {
                    OFFSET 1.62519 -0.234802 1.16502
                  }
                }
              }
              JOINT lMid1
              {
                OFFSET 8.24714 1.18213 3.41376
                CHANNELS 3 Zrotation Xrotation Yrotation
                JOINT lMid2
                {
                  OFFSET 3.10165 -0.590103 1.0647
                  CHANNELS 3 Zrotation Xrotation Yrotation
                  End Site
                  {
                    OFFSET 2.48547 -0.328903 0.83742
                  }
                }
              }
              JOINT lRing1
              {
                OFFSET 8.82822 0.546677 1.51678
                CHANNELS 3 Zrotation Xrotation Yrotation
                JOINT lRing2
                {
                  OFFSET 2.60934 -0.819778 -0.0198488
                  CHANNELS 3 Zrotation Xrotation Yrotation
                  End Site
                  {
                    OFFSET 2.33842 -0.294052 0.168128
                  }
                }
              }
              JOINT lPinky1
              {
                OFFSET 8.27202 -0.0477905 -0.4584
                CHANNELS 3 Zrotation Xrotation Yrotation
                JOINT lPinky2
                {
                  OFFSET 1.82734 -0.647385 -0.700984
                  CHANNELS 3 Zrotation Xrotation Yrotation
                  End Site
                  {
                    OFFSET 1.69225 -0.51767 -0.607171
                  }
                }
              }
            }
          }
        }
      }
    }
  }
  JOINT rButtock
  {
    OFFSET -8.77824 4.35084 1.2192
    CHANNELS 3 Zrotation Xrotation Yrotation
    JOINT rThigh
    {
      OFFSET 0 -1.70687 -2.19456
      CHANNELS 3 Zrotation Xrotation Yrotation
      JOINT rShin
      {
        OFFSET 0 -36.8199 0.73152
        CHANNELS 3 Zrotation Xrotation Yrotation
        JOINT rFoot
        {
          OFFSET 0.73152 -45.1104 -5.12064
          CHANNELS 3 Zrotation Xrotation Yrotation
          End Site
          {
            OFFSET -1.1221 -3.69964 12.103
          }
        }
      }
    }
  }
  JOINT lButtock
  {
    OFFSET 8.77824 4.35084 1.2192
    CHANNELS 3 Zrotation Xrotation Yrotation
    JOINT lThigh
    {
      OFFSET 0 -1.70687 -2.19456
      CHANNELS 3 Zrotation Xrotation Yrotation
      JOINT lShin
      {
        OFFSET 0 -36.8199 0.73152
        CHANNELS 3 Zrotation Xrotation Yrotation
        JOINT lFoot
        {
          OFFSET -0.73152 -45.1104 -5.12064
          CHANNELS 3 Zrotation Xrotation Yrotation
          End Site
          {
            OFFSET 1.1221 -3.69964 12.103
          }
        }
      }
    }
  }
}
MOTION
Frames:	8
Frame Time:	0.00833333
9.1258 81.8822 29.6855 -0.1306 -49.3004 4.2308 1.84031 5.63768 7.11221 1.15663 -4.98292 1.99739 -10.0592 0.758174 -4.37801 11.4502 2.41312 -6.47791 -0.0 0.0 0.0 -0.0 0.0 0.0 4.77632e-14 -1.55922e-14 5.66707e-14 79.2045 21.7419 1.16733 -18.522 -11.2636 35.1883 -0.0370929 5.5145 0.777406 -6.93049e-10 6.87234e-11 1.40119e-10 -1.1969e-09 1.21198e-10 2.48097e-10 -6.9305e-10 6.87246e-11 1.4011e-10 7.73091 5.47488 0.417314 -6.93049e-10 6.87252e-11 1.4012e-10 2.90554 0.965183 0.102902 -6.93043e-10 6.87237e-11 1.40118e-10 10.2786 0.731801 0.0259123 -6.93052e-10 6.87216e-11 1.40128e-10 2.22167 -0.733487 -0.20892 4.77141e-14 -1.56035e-14 5.64257e-14 -85.3244 2.40375 6.34649 10.3074 -4.3303 -18.379 0.251437 14.1446 -2.0296 -2.90732e-10 -4.19122e-10 -1.11651e-09 -5.12226e-10 -7.24329e-10 -1.92454e-09 -2.90743e-10 -4.19119e-10 -1.1165e-09 -7.73091 5.47488 -0.417314 -2.90743e-10 -4.19129e-10 -1.11652e-09 -2.90554 0.965183 -0.102902 -2.90752e-10 -4.1912e-10 -1.1165e-09 -10.2786 0.731801 -0.0259123 -2.90732e-10 -4.1912e-10 -1.11651e-09 -2.22167 -0.733487 0.20892 -2.03217e-16 0.0 -3.88251e-19 4.63132 4.55233 6.23818 -0.254019 36.2632 0.710873 -3.9375 19.4346 13.6361 2.03217e-16 0.0 3.88251e-19 0.902006 -36.7994 -8.73731 0.204621 28.408 -0.00876781 0.386038 0.968361 0.286088
8.53531 81.7524 30.8683 1.3094 -49.2142 2.8543 0.473113 5.8347 6.97087 1.35523 -5.08761 1.93116 -9.97441 0.556488 -4.35561 11.4724 2.41857 -6.42214 -0.0 0.0 0.0 -0.0 0.0 0.0 5.53394e-14 -2.99367e-14 -1.01629e-13 79.6133 20.853 0.900662 -18.1058 -10.8009 34.2582 -0.0427792 5.89278 0.831138 1.22495e-10 -1.3103e-09 -5.78034e-11 2.12789e-10 -2.26688e-09 -1.00003e-10 1.22493e-10 -1.31029e-09 -5.78129e-11 7.73091 5.47488 0.417314 1.22496e-10 -1.31029e-09 -5.78034e-11 2.90554 0.965183 0.102902 1.225e-10 -1.3103e-09 -5.78034e-11 10.2786 0.731801 0.0259123 1.22492e-10 -1.3103e-09 -5.77939e-11 2.22167 -0.733487 -0.20892 5.52879e-14 -2.9947e-14 -1.01877e-13 -85.1413 2.01303 6.38098 10.3213 -4.3389 -18.4052 0.234363 13.657 -1.95695 3.00378e-10 -1.0746e-09 -1.85251e-09 4.99543e-10 -1.8686e-09 -3.20476e-09 3.00367e-10 -1.0746e-09 -1.85249e-09 -7.73091 5.47488 -0.417314 3.00365e-10 -1.07461e-09 -1.85252e-09 -2.90554 0.965183 -0.102902 3.00359e-10 -1.0746e-09 -1.85249e-09 -10.2786 0.731801 -0.0259123 3.00378e-10 -1.0746e-09 -1.8525e-09 -2.22167 -0.733487 0.20892 -2.03217e-16 0.0 -3.88251e-19 3.58225 2.22096 6.25846 -0.334635 40.3339 0.789316 -4.87002 22.888 14.2839 2.03217e-16 0.0 3.88251e-19 0.117931 -36.4232 -7.50772 0.21692 29.1874 0.0441583 0.286334 1.3109 -1.01672
7.85859 81.701 32.1674 2.7437 -49.3237 1.3324 -0.559559 6.34135 6.89161 1.46876 -5.13135 1.88195 -9.91593 0.442107 -4.29618 11.4517 2.0609 -6.25566 -0.0 0.0 0.0 -0.0 0.0 0.0 6.76143e-14 -4.82934e-15 -4.55647e-13 80.0052 19.9984 0.704132 -17.7383 -10.4037 33.448 -0.0467473 6.14043 0.866365 1.73934e-09 -3.46012e-09 -6.04778e-10 3.00487e-09 -5.99005e-09 -1.05939e-09 1.73933e-09 -3.46012e-09 -6.04789e-10 7.73091 5.47488 0.417314 1.73934e-09 -3.46012e-09 -6.04779e-10 2.90554 0.965183 0.102902 1.73934e-09 -3.46012e-09 -6.04777e-10 10.2786 0.731801 0.0259123 1.73933e-09 -3.46012e-09 -6.04768e-10 2.22167 -0.733487 -0.20892 6.75408e-14 -4.83828e-15 -4.55907e-13 -84.9187 1.61472 6.27863 10.32 -4.33801 -18.4032 0.219306 13.2223 -1.89232 1.34459e-09 -1.86078e-09 -2.29651e-09 2.2976e-09 -3.242e-09 -3.9858e-09 1.34458e-09 -1.86078e-09 -2.2965e-09 -7.73091 5.47488 -0.417314 1.34458e-09 -1.86079e-09 -2.29652e-09 -2.90554 0.965183 -0.102902 1.34458e-09 -1.86078e-09 -2.2965e-09 -10.2786 0.731801 -0.0259123 1.34459e-09 -1.86078e-09 -2.29651e-09 -2.22167 -0.733487 0.20892 -2.03217e-16 0.0 -3.88251e-19 2.8481 0.205345 6.34851 -0.428981 44.3478 0.87953 -5.05979 23.7731 14.4224 2.03217e-16 0.0 3.88251e-19 -0.258488 -35.7746 -6.20086 0.228947 29.9625 0.0784917 0.222853 1.38416 -1.88401
7.0619 81.765 33.4005 3.3628 -49.6232 0.344 -1.43299 7.09414 6.82898 1.54328 -5.14833 1.83658 -9.87402 0.37142 -4.21084 11.4034 1.42892 -6.00727 -0.0 0.0 0.0 -0.0 0.0 0.0 8.44949e-14 4.61492e-14 -9.59012e-13 80.3861 19.1443 0.571788 -17.3992 -10.0483 32.703 -0.0497589 6.32411 0.892514 3.97212e-09 -6.27405e-09 -1.40868e-09 6.85986e-09 -1.08634e-08 -2.46874e-09 3.97212e-09 -6.27405e-09 -1.40869e-09 7.73091 5.47488 0.417314 3.97212e-09 -6.27405e-09 -1.40868e-09 2.90554 0.965183 0.102902 3.97212e-09 -6.27405e-09 -1.40868e-09 10.2786 0.731801 0.0259123 3.97212e-09 -6.27405e-09 -1.40867e-09 2.22167 -0.733487 -0.20892 8.43876e-14 4.61422e-14 -9.59288e-13 -84.6681 1.18691 6.07094 10.3094 -4.33118 -18.3836 0.204762 12.7911 -1.82842 2.74461e-09 -2.82363e-09 -2.64082e-09 4.71136e-09 -4.92421e-09 -4.59896e-09 2.7446e-09 -2.82363e-09 -2.6408e-09 -7.73091 5.47488 -0.417314 2.7446e-09 -2.82364e-09 -2.64082e-09 -2.90554 0.965183 -0.102902 2.7446e-09 -2.82364e-09 -2.64081e-09 -10.2786 0.731801 -0.0259123 2.74461e-09 -2.82363e-09 -2.64082e-09 -2.22167 -0.733487 0.20892 -2.03217e-16 0.0 -3.88251e-19 2.31285 -1.66155 6.49147 -0.543542 48.3808 0.988591 -4.70914 23.0007 14.132 2.03217e-16 0.0 3.88251e-19 -0.396937 -34.9387 -4.7195 0.241558 30.7537 0.100114 0.167939 1.19766 -2.493
6.28989 81.8196 34.4325 3.5149 -49.9435 -0.295 -2.19687 7.86841 6.74176 1.58978 -5.13837 1.7845 -9.8571 0.320878 -4.11934 11.3488 0.739488 -5.7372 -0.0 0.0 0.0 -0.0 0.0 0.0 9.26495e-14 8.93796e-14 -1.37958e-12 80.7175 18.2757 0.490171 -17.0534 -9.69895 31.9411 -0.0527911 6.52031 0.920433 5.82847e-09 -8.49792e-09 -2.05806e-09 1.00649e-08 -1.4715e-08 -3.60767e-09 5.82847e-09 -8.49792e-09 -2.05808e-09 7.73091 5.47488 0.417314 5.82847e-09 -8.49792e-09 -2.05806e-09 2.90554 0.965183 0.102902 5.82847e-09 -8.49792e-09 -2.05806e-09 10.2786 0.731801 0.0259123 5.82846e-09 -8.49792e-09 -2.05805e-09 2.22167 -0.733487 -0.20892 9.25118e-14 8.93748e-14 -1.37987e-12 -84.4078 0.785516 5.78608 10.2785 -4.31197 -18.3254 0.192708 12.4176 -1.77326 3.89221e-09 -3.51008e-09 -2.75662e-09 6.69177e-09 -6.12451e-09 -4.81391e-09 3.89221e-09 -3.51008e-09 -2.75661e-09 -7.73091 5.47488 -0.417314 3.89221e-09 -3.51009e-09 -2.75662e-09 -2.90554 0.965183 -0.102902 3.89221e-09 -3.51009e-09 -2.75662e-09 -10.2786 0.731801 -0.0259123 3.89222e-09 -3.51009e-09 -2.75663e-09 -2.22167 -0.733487 0.20892 -2.03217e-16 0.0 -3.88251e-19 1.84458 -3.51005 6.54918 -0.681507 52.2652 1.11619 -4.03577 21.3664 13.3657 2.03217e-16 0.0 3.88251e-19 -0.536486 -33.998 -3.31147 0.252488 31.469 0.113072 0.113286 0.808934 -2.94339
5.55384 81.895 35.5144 4.0117 -50.3349 -1.1154 -2.90012 8.43956 6.58729 1.61926 -5.10131 1.71519 -9.87354 0.266935 -4.04144 11.3032 0.210142 -5.50458 -0.0 0.0 0.0 -0.0 0.0 0.0 7.87463e-14 9.12427e-14 -1.48522e-12 80.9594 17.3776 0.446187 -16.6612 -9.31636 31.0812 -0.0571427 6.8055 0.961019 6.31598e-09 -8.87755e-09 -2.14148e-09 1.09073e-08 -1.53728e-08 -3.75577e-09 6.31598e-09 -8.87756e-09 -2.14149e-09 7.73091 5.47488 0.417314 6.31598e-09 -8.87756e-09 -2.14148e-09 2.90554 0.965183 0.102902 6.31598e-09 -8.87756e-09 -2.14147e-09 10.2786 0.731801 0.0259123 6.31597e-09 -8.87755e-09 -2.14146e-09 2.22167 -0.733487 -0.20892 7.85969e-14 9.12402e-14 -1.48552e-12 -84.1547 0.466706 5.45205 10.2162 -4.27387 -18.2076 0.184735 12.156 -1.73478 4.17918e-09 -3.46706e-09 -2.51512e-09 7.18977e-09 -6.05218e-09 -4.40031e-09 4.17917e-09 -3.46706e-09 -2.51511e-09 -7.73091 5.47488 -0.417314 4.17918e-09 -3.46706e-09 -2.51512e-09 -2.90554 0.965183 -0.102902 4.17918e-09 -3.46706e-09 -2.51513e-09 -10.2786 0.731801 -0.0259123 4.17919e-09 -3.46706e-09 -2.51513e-09 -2.22167 -0.733487 0.20892 -2.03217e-16 0.0 -3.88251e-19 1.29397 -5.47251 6.38434 -0.842715 55.8334 1.25896 -3.27617 19.6575 12.0766 2.03217e-16 0.0 3.88251e-19 -0.886781 -33.0467 -2.2074 0.259289 32.0165 0.121491 0.0542665 0.275319 -3.33506
4.81556 82.0288 36.7145 4.5605 -50.6067 -1.7922 -3.55888 8.73727 6.36075 1.61712 -5.01097 1.62622 -9.94115 0.190415 -3.98591 11.2845 -0.122126 -5.32199 -0.0 0.0 0.0 -0.0 0.0 0.0 2.26655e-14 2.24038e-14 -1.05526e-12 81.0857 16.3917 0.472603 -16.1895 -8.87061 30.0605 -0.0642374 7.24136 1.02314 4.52565e-09 -6.14147e-09 -1.26821e-09 7.8181e-09 -1.06351e-08 -2.22918e-09 4.52566e-09 -6.14147e-09 -1.26822e-09 7.73091 5.47488 0.417314 4.52565e-09 -6.14147e-09 -1.26821e-09 2.90554 0.965183 0.102902 4.52565e-09 -6.14147e-09 -1.26821e-09 10.2786 0.731801 0.0259123 4.52565e-09 -6.14147e-09 -1.2682e-09 2.22167 -0.733487 -0.20892 2.25346e-14 2.24043e-14 -1.05556e-12 -83.9162 0.258538 5.05771 10.1221 -4.21591 -18.0308 0.179458 11.9628 -1.70653 3.01516e-09 -2.15247e-09 -1.61272e-09 5.18909e-09 -3.762e-09 -2.82597e-09 3.01516e-09 -2.15247e-09 -1.61271e-09 -7.73091 5.47488 -0.417314 3.01516e-09 -2.15247e-09 -1.61271e-09 -2.90554 0.965183 -0.102902 3.01516e-09 -2.15247e-09 -1.61272e-09 -10.2786 0.731801 -0.0259123 3.01517e-09 -2.15247e-09 -1.61273e-09 -2.22167 -0.733487 0.20892 -2.03217e-16 0.0 -3.88251e-19 0.543419 -7.62291 5.91966 -1.0322 59.1002 1.41655 -2.41959 17.7845 10.0013 2.03217e-16 0.0 3.88251e-19 -1.49822 -32.1063 -1.42645 0.261491 32.3596 0.125355 -0.0147667 -0.476689 -3.67828
4.16334 82.0348 37.8736 5.1004 -50.5869 -2.3289 -4.1466 8.8846 6.08212 1.58372 -4.87613 1.52312 -10.0503 0.108181 -3.94104 11.2774 -0.366073 -5.15858 -0.0 0.0 0.0 -0.0 0.0 0.0 -6.29611e-14 -9.24171e-14 -2.66443e-13 81.1282 15.3441 0.562716 -15.6599 -8.38414 28.9372 -0.0739207 7.77333 1.09918 1.20156e-09 -1.2709e-09 2.48634e-10 2.08158e-09 -2.20119e-09 4.23979e-10 1.20156e-09 -1.2709e-09 2.48623e-10 7.73091 5.47488 0.417314 1.20156e-09 -1.27091e-09 2.48638e-10 2.90554 0.965183 0.102902 1.20156e-09 -1.2709e-09 2.4864e-10 10.2786 0.731801 0.0259123 1.20155e-09 -1.2709e-09 2.48649e-10 2.22167 -0.733487 -0.20892 -6.30539e-14 -9.2413e-14 -2.66719e-13 -83.6818 0.1268 4.59411 10.0009 -4.14113 -17.8041 0.176143 11.8284 -1.68698 8.67262e-10 5.162e-11 -2.07855e-10 1.49475e-09 7.95193e-11 -3.7068e-10 8.67258e-10 5.16271e-11 -2.07842e-10 -7.73091 5.47488 -0.417314 8.67263e-10 5.16226e-11 -2.07852e-10 -2.90554 0.965183 -0.102902 8.6726e-10 5.16237e-11 -2.07854e-10 -10.2786 0.731801 -0.0259123 8.67268e-10 5.1624e-11 -2.0786e-10 -2.22167 -0.733487 0.20892 -2.03217e-16 0.0 -3.88251e-19 -0.344942 -9.88128 5.23753 -1.25193 62.1353 1.59467 -1.54579 15.3736 7.31362 2.03217e-16 0.0 3.88251e-19 -2.24207 -31.1373 -0.848575 0.260778 32.5514 0.122598 -0.091842 -1.4478 -3.92615
